<svg width="64" height="64" viewBox="0 0 64 64" fill="none" xmlns="http://www.w3.org/2000/svg">
<rect width="64" height="64" rx="10" fill="#2624A6"/>
<path d="M39.0357 24.125C39.0357 28.0604 35.7742 31.25 31.6988 31.25C27.7258 31.25 24.4131 28.0604 24.4131 24.125C24.4131 20.1901 27.7258 17 31.6988 17C35.7742 17 39.0357 20.1901 39.0357 24.125ZM35.3416 37.1504C33.8219 37.5456 32.6095 38.9428 32.6095 40.6016V41.9375C32.6095 42.1713 32.7575 42.3995 32.9282 42.5665L33.839 43.4571C34.1919 43.8078 34.7724 43.8078 35.1253 43.4571C35.4839 43.112 35.4839 42.5442 35.1253 42.1991L34.4309 41.5701V40.6016C34.4309 39.6163 35.2961 38.8203 36.2523 38.8203C37.311 38.8203 38.125 39.6163 38.125 40.6016V41.5701L37.4818 42.1991C37.1232 42.5442 37.1232 43.112 37.4818 43.4571C37.8347 43.8078 38.4153 43.8078 38.7682 43.4571L39.6789 42.5665C39.8497 42.3995 39.9464 42.1713 39.9464 41.9375V40.6016C39.9464 38.9428 38.7853 37.5456 37.2143 37.1504V34.1891C41.3979 35.1854 44.5 38.8259 44.5 43.2734V43.7188C44.5 44.704 43.686 45.5 42.6786 45.5H20.8214C19.8157 45.5 19 44.704 19 43.7188V43.2734C19 38.876 22.1038 35.1854 26.2857 34.1891V37.6124C24.9709 37.9965 24.0089 39.1877 24.0089 40.6016C24.0089 42.3216 25.4376 43.7188 27.1964 43.7188C28.9552 43.7188 30.3839 42.3216 30.3839 40.6016C30.3839 39.1877 29.422 37.9965 28.1071 37.6124V33.933C28.2608 33.9274 28.4088 33.9219 28.5625 33.9219H34.9375C35.0912 33.9219 35.2392 33.9274 35.3929 33.933L35.3416 37.1504V37.1504ZM28.5113 40.6016C28.5113 41.3419 27.9535 41.9375 27.1452 41.9375C26.4394 41.9375 25.7791 41.3419 25.7791 40.6016C25.7791 39.8612 26.4394 39.2656 27.1452 39.2656C27.9535 39.2656 28.5113 39.8612 28.5113 40.6016Z" fill="white"/>
</svg>
