<svg width="64" height="64" viewBox="0 0 64 64" fill="none" xmlns="http://www.w3.org/2000/svg">
<rect width="64" height="64" rx="10" fill="#7B2AFF"/>
<path d="M32 25.4375V17H23.5625C22.8166 17 22.1012 17.2963 21.5738 17.8238C21.0463 18.3512 20.75 19.0666 20.75 19.8125V44.1875C20.75 44.9334 21.0463 45.6488 21.5738 46.1762C22.1012 46.7037 22.8166 47 23.5625 47H40.4375C41.1834 47 41.8988 46.7037 42.4262 46.1762C42.9537 45.6488 43.25 44.9334 43.25 44.1875V28.25H34.8125C34.0666 28.25 33.3512 27.9537 32.8238 27.4262C32.2963 26.8988 32 26.1834 32 25.4375ZM24.5 32.9375C24.5 32.6889 24.5988 32.4504 24.7746 32.2746C24.9504 32.0988 25.1889 32 25.4375 32C25.6861 32 25.9246 32.0988 26.1004 32.2746C26.2762 32.4504 26.375 32.6889 26.375 32.9375C26.375 33.1861 26.2762 33.4246 26.1004 33.6004C25.9246 33.7762 25.6861 33.875 25.4375 33.875C25.1889 33.875 24.9504 33.7762 24.7746 33.6004C24.5988 33.4246 24.5 33.1861 24.5 32.9375ZM24.5 36.6875C24.5 36.4389 24.5988 36.2004 24.7746 36.0246C24.9504 35.8488 25.1889 35.75 25.4375 35.75C25.6861 35.75 25.9246 35.8488 26.1004 36.0246C26.2762 36.2004 26.375 36.4389 26.375 36.6875C26.375 36.9361 26.2762 37.1746 26.1004 37.3504C25.9246 37.5262 25.6861 37.625 25.4375 37.625C25.1889 37.625 24.9504 37.5262 24.7746 37.3504C24.5988 37.1746 24.5 36.9361 24.5 36.6875ZM24.5 40.4375C24.5 40.1889 24.5988 39.9504 24.7746 39.7746C24.9504 39.5988 25.1889 39.5 25.4375 39.5C25.6861 39.5 25.9246 39.5988 26.1004 39.7746C26.2762 39.9504 26.375 40.1889 26.375 40.4375C26.375 40.6861 26.2762 40.9246 26.1004 41.1004C25.9246 41.2762 25.6861 41.375 25.4375 41.375C25.1889 41.375 24.9504 41.2762 24.7746 41.1004C24.5988 40.9246 24.5 40.6861 24.5 40.4375ZM28.25 32.9375C28.25 32.6889 28.3488 32.4504 28.5246 32.2746C28.7004 32.0988 28.9389 32 29.1875 32H38.5625C38.8111 32 39.0496 32.0988 39.2254 32.2746C39.4012 32.4504 39.5 32.6889 39.5 32.9375C39.5 33.1861 39.4012 33.4246 39.2254 33.6004C39.0496 33.7762 38.8111 33.875 38.5625 33.875H29.1875C28.9389 33.875 28.7004 33.7762 28.5246 33.6004C28.3488 33.4246 28.25 33.1861 28.25 32.9375ZM28.25 36.6875C28.25 36.4389 28.3488 36.2004 28.5246 36.0246C28.7004 35.8488 28.9389 35.75 29.1875 35.75H38.5625C38.8111 35.75 39.0496 35.8488 39.2254 36.0246C39.4012 36.2004 39.5 36.4389 39.5 36.6875C39.5 36.9361 39.4012 37.1746 39.2254 37.3504C39.0496 37.5262 38.8111 37.625 38.5625 37.625H29.1875C28.9389 37.625 28.7004 37.5262 28.5246 37.3504C28.3488 37.1746 28.25 36.9361 28.25 36.6875ZM28.25 40.4375C28.25 40.1889 28.3488 39.9504 28.5246 39.7746C28.7004 39.5988 28.9389 39.5 29.1875 39.5H38.5625C38.8111 39.5 39.0496 39.5988 39.2254 39.7746C39.4012 39.9504 39.5 40.1889 39.5 40.4375C39.5 40.6861 39.4012 40.9246 39.2254 41.1004C39.0496 41.2762 38.8111 41.375 38.5625 41.375H29.1875C28.9389 41.375 28.7004 41.2762 28.5246 41.1004C28.3488 40.9246 28.25 40.6861 28.25 40.4375ZM33.875 25.4375V17.4688L42.7812 26.375H34.8125C34.5639 26.375 34.3254 26.2762 34.1496 26.1004C33.9738 25.9246 33.875 25.6861 33.875 25.4375Z" fill="white"/>
</svg>
