<svg width="64" height="64" viewBox="0 0 64 64" fill="none" xmlns="http://www.w3.org/2000/svg">
<rect width="64" height="64" rx="10" fill="#0890FE"/>
<path d="M42.7584 18.7759V20.5816H40.9762V18.7759H36.3188V20.5816H34.5366V18.7759H29.8792V20.5816H28.097V18.7759H23.4396V20.5816H21.6574V18.7759H17V22.9418H47.4158V18.7759H42.7584Z" fill="white"/>
<path d="M41.8496 47L47.4155 41.4043H41.8496V47Z" fill="white"/>
<path d="M17 47.0001H40.0677V39.6222H47.4158V24.7241H17V47.0001ZM27.9981 38.8125H32.0756C33.2418 38.8125 34.1906 37.8759 34.1906 36.7247C34.1906 35.5734 33.2418 34.6368 32.0756 34.6368H28.109V28.9171H35.4157V30.6992H29.8912V32.8546H32.0756C34.2245 32.8546 35.9728 34.5907 35.9728 36.7247C35.9728 38.8586 34.2245 40.5947 32.0756 40.5947H27.9981V38.8125Z" fill="white"/>
<path d="M40.9758 17H42.758V18.7759H40.9758V17Z" fill="white"/>
<path d="M34.5371 17H36.3193V18.7759H34.5371V17Z" fill="white"/>
<path d="M28.0969 17H29.8791V18.7759H28.0969V17Z" fill="white"/>
<path d="M21.6575 17H23.4396V18.7759H21.6575V17Z" fill="white"/>
</svg>
