<svg width="40" height="40" viewBox="0 0 40 40" fill="none" xmlns="http://www.w3.org/2000/svg">
<rect width="40" height="40" rx="10" fill="#7B2AFF"/>
<path d="M28 20C28 22.1217 27.1571 24.1566 25.6569 25.6569C24.1566 27.1571 22.1217 28 20 28C17.8783 28 15.8434 27.1571 14.3431 25.6569C12.8429 24.1566 12 22.1217 12 20C12 17.8783 12.8429 15.8434 14.3431 14.3431C15.8434 12.8429 17.8783 12 20 12C22.1217 12 24.1566 12.8429 25.6569 14.3431C27.1571 15.8434 28 17.8783 28 20V20ZM24.03 16.97C23.9586 16.8988 23.8735 16.8428 23.7799 16.8052C23.6863 16.7677 23.5861 16.7494 23.4853 16.7514C23.3845 16.7535 23.2851 16.7758 23.1932 16.8172C23.1012 16.8585 23.0185 16.918 22.95 16.992L19.477 21.417L17.384 19.323C17.2418 19.1905 17.0538 19.1184 16.8595 19.1218C16.6652 19.1253 16.4798 19.204 16.3424 19.3414C16.205 19.4788 16.1263 19.6642 16.1228 19.8585C16.1194 20.0528 16.1915 20.2408 16.324 20.383L18.97 23.03C19.0413 23.1012 19.1262 23.1572 19.2196 23.1949C19.313 23.2325 19.413 23.2509 19.5137 23.2491C19.6144 23.2472 19.7137 23.2251 19.8057 23.184C19.8977 23.1429 19.9804 23.0837 20.049 23.01L24.041 18.02C24.1771 17.8785 24.2523 17.6893 24.2504 17.493C24.2485 17.2966 24.1698 17.1089 24.031 16.97H24.03Z" fill="white"/>
</svg>
