<svg width="40" height="40" viewBox="0 0 40 40" fill="none" xmlns="http://www.w3.org/2000/svg">
<rect width="40" height="40" rx="10" fill="#2624A6"/>
<path d="M26.0002 12H14.0002C13.6322 12 13.3335 12.298 13.3335 12.6667V28H16.0002H18.0002H20.0002H22.0002H24.0002H26.6668V12.6667C26.6668 12.298 26.3682 12 26.0002 12ZM20.6668 22.6667H16.0002V21.3333H20.6668V22.6667ZM20.6668 20H16.0002V18.6667H20.6668V20ZM20.6668 17.3333H16.0002V16H20.6668V17.3333ZM24.0002 22.6667H22.0002V21.3333H24.0002V22.6667ZM24.0002 20H22.0002V18.6667H24.0002V20ZM24.0002 17.3333H22.0002V16H24.0002V17.3333Z" fill="white"/>
</svg>
