<svg width="184" height="43" viewBox="0 0 184 43" fill="none" xmlns="http://www.w3.org/2000/svg">
<path fill-rule="evenodd" clip-rule="evenodd" d="M33.3199 1.65407C38.2945 4.14931 40.6576 8.09878 40.6576 13.9157C40.6576 19.1897 38.5019 22.746 33.2419 26.1513L31.9569 26.9833L35.127 32.6677C36.8712 35.794 38.9057 39.3981 39.6492 40.6758L41 43L33.7115 42.848L26.423 42.6964L19.91 31.0213L13.3971 19.3461L18.6394 19.0745C23.7562 18.8095 23.921 18.759 25.5529 16.9638C26.964 15.4113 27.1753 14.8177 26.907 13.1626C26.7206 12.0113 25.9976 10.6956 25.1568 9.97876C23.8121 8.83187 23.2263 8.75639 15.5959 8.74933L7.46772 8.74173L5.07307 4.37087L2.67897 0L16.6895 0.169969C30.2492 0.334508 30.7853 0.382293 33.3199 1.65407ZM11.1839 20.1606C17.1094 30.7633 22.3755 40.2322 22.8861 41.2031L23.8143 42.968H16.6613H9.50835L4.75445 34.4728L0 25.977V13.2038C0 6.17862 0.0923779 0.532171 0.20467 0.656526C0.317516 0.781423 5.25783 9.55791 11.1839 20.1606Z" fill="#2A27A8"/>
<path fill-rule="evenodd" clip-rule="evenodd" d="M68.8171 11.4899C72.1889 12.3986 73.6411 14.3092 73.4826 17.6275C73.4259 18.8115 73.3152 19.3139 72.9433 20.0742C72.3169 21.355 71.1358 22.4813 69.7078 23.1599L68.5328 23.7183L69.1431 24.0954C69.4787 24.3029 70.0939 24.8517 70.5103 25.3151C71.2649 26.1544 76.067 33.5082 76.067 33.8241C76.067 33.9256 74.9463 33.9903 73.1869 33.9903H70.3069L68.3156 30.7001C65.2044 25.5594 64.9469 25.2832 63.223 25.2413L62.3626 25.2204L62.2775 29.5628L62.1924 33.9051L59.5962 33.9521L57 33.9991V22.6138C57 16.3517 57.0574 11.1693 57.1277 11.0972C57.198 11.0252 59.5536 11.0024 62.3626 11.0465C66.8823 11.1175 67.6248 11.1684 68.8171 11.4899ZM91.5217 13.1724L91.5695 15.2584H87.5636H83.5576V17.8128V20.3671H87.3082H91.0588L91.011 22.4532L90.9631 24.5392L87.2604 24.5852L83.5576 24.631V27.1821V29.7331H87.8137H92.0697V31.8635V33.9942L85.2175 33.9496L78.3653 33.9051L78.3212 22.666C78.2968 16.4845 78.314 11.3302 78.3592 11.212C78.4237 11.0431 79.8357 11.0067 84.9575 11.0417L91.4739 11.0863L91.5217 13.1724ZM103.266 11.2141C103.507 11.5124 108.167 25.1323 108.521 26.574C108.735 27.4466 108.844 27.6702 108.934 27.4255C109.001 27.2429 109.448 25.8675 109.928 24.3689C110.408 22.8704 111.623 19.2688 112.629 16.3653L114.457 11.0863H118.117H121.777L121.821 22.5383L121.864 33.9903H119.303H116.741L116.79 24.8939C116.818 19.8908 116.815 15.8218 116.786 15.8516C116.756 15.8814 116.629 16.3473 116.504 16.8867C116.378 17.4264 115.028 21.4977 113.502 25.9339L110.728 34L108.6 33.9525L106.472 33.9051L103.856 26.5827C102.418 22.5553 101.035 18.448 100.784 17.4552L100.326 15.6501L100.385 24.8202L100.444 33.9903H98.1293H95.815V22.4957V11.0012H99.4544C102.161 11.0012 103.138 11.0559 103.266 11.2141ZM140.211 13.1724L140.259 15.2584H136.253H132.247V17.8094V20.3605L135.949 20.4063L139.652 20.4523V22.4957V24.5392L135.949 24.5852L132.247 24.631V27.1821V29.7331H136.503H140.759V31.8617V33.9903H133.864H126.969V22.6093C126.969 16.3497 127.021 11.1763 127.085 11.1127C127.148 11.0492 130.117 11.0172 133.681 11.0417L140.163 11.0863L140.211 13.1724ZM154.026 11.1735C159.881 11.6289 163.036 13.9196 164.271 18.6131C164.761 20.4763 164.765 23.8417 164.28 25.6723C163.423 28.9034 161.467 31.25 158.396 32.7308C156.238 33.7715 155.254 33.9016 149.526 33.9034L144.419 33.9051L144.375 22.666C144.35 16.4845 144.367 11.3312 144.412 11.2141C144.513 10.9498 150.808 10.9232 154.026 11.1735ZM173.786 22.4957V33.9903H171.147H168.508V22.4957V11.0012H171.147H173.786V22.4957ZM184 22.4957V33.9903H181.361H178.723V22.4957V11.0012H181.361H184V22.4957ZM62.2775 18.0592V21.2487L64.1209 21.191C65.7353 21.1406 66.0383 21.0825 66.5621 20.723C67.414 20.1384 67.8898 19.358 68.0093 18.3494C68.1641 17.0417 67.7375 16.061 66.7662 15.4916C66.1105 15.1072 65.7523 15.0343 64.1421 14.958L62.2775 14.8697V18.0592ZM149.611 22.5155V29.7726L151.867 29.6947C154.627 29.5995 155.628 29.2705 157.015 28.0019C158.736 26.4288 159.57 23.7142 159.154 21.0367C158.545 17.1052 156.039 15.2698 151.271 15.2613L149.611 15.2584V22.5155Z" fill="#2A27A8"/>
</svg>
