<svg width="40" height="40" viewBox="0 0 40 40" fill="none" xmlns="http://www.w3.org/2000/svg">
<rect width="40" height="40" rx="10" fill="#FF4267"/>
<path d="M24.0002 14L22.0002 12L20.0002 14L18.0002 12L16.0002 14L13.3335 12V27.3333C13.3335 27.702 13.6322 28 14.0002 28H26.0002C26.3682 28 26.6668 27.702 26.6668 27.3333V12L24.0002 14ZM20.3675 24.2187V25.2867H19.6542V24.24C18.8068 24.2227 18.0635 24.0733 17.4248 23.792V22.4173C18.0248 22.714 18.9768 22.974 19.6542 23.016V21.4013C18.4615 20.9387 17.4148 20.49 17.4148 19.2033C17.4148 18.0347 18.4868 17.4853 19.6542 17.37V16.5727H20.3675V17.3487C21.1622 17.3833 21.8815 17.5433 22.5235 17.828L22.0342 19.0467C21.4928 18.8247 20.9368 18.6893 20.3675 18.6407V20.1773C21.6328 20.664 22.6435 21.1073 22.6435 22.2867C22.6435 23.53 21.6108 24.1047 20.3675 24.2187Z" fill="white"/>
</svg>
