<svg width="40" height="40" viewBox="0 0 40 40" fill="none" xmlns="http://www.w3.org/2000/svg">
<rect width="40" height="40" rx="10" fill="#0890FE"/>
<path d="M20 16.5V12H15.5C15.1022 12 14.7206 12.158 14.4393 12.4393C14.158 12.7206 14 13.1022 14 13.5V26.5C14 26.8978 14.158 27.2794 14.4393 27.5607C14.7206 27.842 15.1022 28 15.5 28H24.5C24.8978 28 25.2794 27.842 25.5607 27.5607C25.842 27.2794 26 26.8978 26 26.5V18H21.5C21.1022 18 20.7206 17.842 20.4393 17.5607C20.158 17.2794 20 16.8978 20 16.5ZM16 20.5C16 20.3674 16.0527 20.2402 16.1464 20.1464C16.2402 20.0527 16.3674 20 16.5 20C16.6326 20 16.7598 20.0527 16.8536 20.1464C16.9473 20.2402 17 20.3674 17 20.5C17 20.6326 16.9473 20.7598 16.8536 20.8536C16.7598 20.9473 16.6326 21 16.5 21C16.3674 21 16.2402 20.9473 16.1464 20.8536C16.0527 20.7598 16 20.6326 16 20.5ZM16 22.5C16 22.3674 16.0527 22.2402 16.1464 22.1464C16.2402 22.0527 16.3674 22 16.5 22C16.6326 22 16.7598 22.0527 16.8536 22.1464C16.9473 22.2402 17 22.3674 17 22.5C17 22.6326 16.9473 22.7598 16.8536 22.8536C16.7598 22.9473 16.6326 23 16.5 23C16.3674 23 16.2402 22.9473 16.1464 22.8536C16.0527 22.7598 16 22.6326 16 22.5ZM16 24.5C16 24.3674 16.0527 24.2402 16.1464 24.1464C16.2402 24.0527 16.3674 24 16.5 24C16.6326 24 16.7598 24.0527 16.8536 24.1464C16.9473 24.2402 17 24.3674 17 24.5C17 24.6326 16.9473 24.7598 16.8536 24.8536C16.7598 24.9473 16.6326 25 16.5 25C16.3674 25 16.2402 24.9473 16.1464 24.8536C16.0527 24.7598 16 24.6326 16 24.5ZM18 20.5C18 20.3674 18.0527 20.2402 18.1464 20.1464C18.2402 20.0527 18.3674 20 18.5 20H23.5C23.6326 20 23.7598 20.0527 23.8536 20.1464C23.9473 20.2402 24 20.3674 24 20.5C24 20.6326 23.9473 20.7598 23.8536 20.8536C23.7598 20.9473 23.6326 21 23.5 21H18.5C18.3674 21 18.2402 20.9473 18.1464 20.8536C18.0527 20.7598 18 20.6326 18 20.5ZM18 22.5C18 22.3674 18.0527 22.2402 18.1464 22.1464C18.2402 22.0527 18.3674 22 18.5 22H23.5C23.6326 22 23.7598 22.0527 23.8536 22.1464C23.9473 22.2402 24 22.3674 24 22.5C24 22.6326 23.9473 22.7598 23.8536 22.8536C23.7598 22.9473 23.6326 23 23.5 23H18.5C18.3674 23 18.2402 22.9473 18.1464 22.8536C18.0527 22.7598 18 22.6326 18 22.5ZM18 24.5C18 24.3674 18.0527 24.2402 18.1464 24.1464C18.2402 24.0527 18.3674 24 18.5 24H23.5C23.6326 24 23.7598 24.0527 23.8536 24.1464C23.9473 24.2402 24 24.3674 24 24.5C24 24.6326 23.9473 24.7598 23.8536 24.8536C23.7598 24.9473 23.6326 25 23.5 25H18.5C18.3674 25 18.2402 24.9473 18.1464 24.8536C18.0527 24.7598 18 24.6326 18 24.5ZM21 16.5V12.25L25.75 17H21.5C21.3674 17 21.2402 16.9473 21.1464 16.8536C21.0527 16.7598 21 16.6326 21 16.5Z" fill="white"/>
</svg>
